<?xml version="1.0" encoding="UTF-8"?>
<svg version="1.1" xmlns="http://www.w3.org/2000/svg" width="500" height="500">
<path d="M0 0 C165 0 330 0 500 0 C500 165 500 330 500 500 C335 500 170 500 0 500 C0 335 0 170 0 0 Z " fill="#FEFEFE" transform="translate(0,0)"/>
<path d="M0 0 C2.20765877 1.66625674 2.91202837 2.6236071 3.546875 5.33984375 C3.64742188 6.62568359 3.64742188 6.62568359 3.75 7.9375 C3.82734375 8.79214844 3.9046875 9.64679688 3.984375 10.52734375 C4 13 4 13 3.390625 15.12890625 C3.19726562 16.05509766 3.19726562 16.05509766 3 17 C5.33731755 20.50597633 6.90672412 21.0905155 10.6875 22.8125 C15.91758978 25.32369834 19.81611249 28.00628919 24 32 C23.66753345 35.07531556 23.36895244 36.61832506 21.1875 38.875 C19 40 19 40 16.75 39.6875 C16.1725 39.460625 15.595 39.23375 15 39 C14.7525 39.804375 14.505 40.60875 14.25 41.4375 C10.0212766 53.4893617 10.0212766 53.4893617 7 55 C7.28235908 59.14430737 7.28235908 59.14430737 9.52026367 62.40600586 C11.50930071 64.54862635 11.37362043 65.80118582 11.36328125 68.69140625 C11.36408691 69.62621826 11.36489258 70.56103027 11.36572266 71.52416992 C11.33937744 73.02814331 11.33937744 73.02814331 11.3125 74.5625 C11.3026709 75.60317627 11.2928418 76.64385254 11.28271484 77.71606445 C11.17181121 84.47133949 10.71397414 91.09552531 9.85498047 97.79272461 C8.50613637 108.41575158 7.92935071 119.11208233 7.22021484 129.79296875 C7.02580061 132.6242607 6.81056288 135.45254857 6.58203125 138.28125 C6.49610718 139.40635986 6.49610718 139.40635986 6.40844727 140.55419922 C6.26214698 142.46624702 6.10799105 144.37768941 5.953125 146.2890625 C5.68861506 149.15179926 5.68861506 149.15179926 8 151 C8 152.32 8 153.64 8 155 C2.04296875 155.390625 2.04296875 155.390625 0 155 C-4.17471816 151.08204127 -3.66506027 146.10885834 -3.94921875 140.7265625 C-4.00788903 136.42106629 -3.70454265 132.24746406 -3.26171875 127.96875 C-2.20736747 119.27239565 -2.20736747 119.27239565 -4 111 C-4.15123831 109.4804236 -4.24881693 107.95527498 -4.31640625 106.4296875 C-4.35830078 105.53378906 -4.40019531 104.63789063 -4.44335938 103.71484375 C-4.48267578 102.77769531 -4.52199219 101.84054687 -4.5625 100.875 C-4.60568359 99.93011719 -4.64886719 98.98523438 -4.69335938 98.01171875 C-4.79959072 95.67462908 -4.90163176 93.3374317 -5 91 C-8.19503313 93.96125022 -10.46357713 96.11763448 -11.5625 100.375 C-12.36037098 103.40140717 -13.17283184 105.24923098 -14.98828125 107.8671875 C-18.33058392 113.53513443 -18.13356983 120.34250668 -18.625 126.75 C-18.83553814 129.37094624 -19.05989242 131.98990773 -19.2890625 134.609375 C-19.37881348 135.76405273 -19.46856445 136.91873047 -19.56103516 138.10839844 C-20 141 -20 141 -22 144 C-22.45394552 146.27912938 -22.45394552 146.27912938 -22.625 148.6875 C-22.73714844 149.89986328 -22.73714844 149.89986328 -22.8515625 151.13671875 C-22.90054687 151.75160156 -22.94953125 152.36648438 -23 153 C-25.60380996 153.19476139 -28.20775533 153.38108614 -30.8125 153.5625 C-31.55048828 153.61857422 -32.28847656 153.67464844 -33.04882812 153.73242188 C-36.36788516 153.95769724 -38.81232564 154.06255812 -42 153 C-40.65790834 148.97372501 -38.51298199 148.24830847 -35 146 C-32.53452583 144.12964028 -32.07580959 143.30323837 -31.3125 140.25 C-30.94217375 136.94277196 -30.94217375 136.94277196 -31 133.375 C-31 130 -31 130 -30.52685547 128.10864258 C-29.92080382 125.6830318 -29.73714236 123.38125459 -29.5703125 120.88671875 C-29.49893066 119.89309326 -29.42754883 118.89946777 -29.35400391 117.87573242 C-29.27843262 116.82361572 -29.20286133 115.77149902 -29.125 114.6875 C-28.23856709 103.38590255 -27.16908513 92.50036354 -23 81.8671875 C-20.74273788 75.79205502 -19.99380706 69.85960664 -19.375 63.4375 C-19.16140049 61.31040492 -18.94042626 59.18403326 -18.7109375 57.05859375 C-18.62118652 56.13361084 -18.53143555 55.20862793 -18.43896484 54.25561523 C-18 52 -18 52 -16 50 C-12.875 50.375 -12.875 50.375 -10 51 C-10 50.01 -10 49.02 -10 48 C-10.66 48 -11.32 48 -12 48 C-12 46.68 -12 45.36 -12 44 C-13.65 43.67 -15.3 43.34 -17 43 C-17.33 40.69 -17.66 38.38 -18 36 C-18.78375 35.71125 -19.5675 35.4225 -20.375 35.125 C-23 34 -23 34 -25 32 C-24.84061585 28.9717012 -24.23663071 27.32181777 -22.4375 24.875 C-19.14751216 22.34424013 -15.93447314 21.31149105 -12 20 C-12.33 19.195625 -12.66 18.39125 -13 17.5625 C-14.20595723 13.26627735 -14.81461227 9.42334463 -14 5 C-9.84431562 -0.39115812 -6.55816422 -1.63954105 0 0 Z " fill="#A51E29" transform="translate(441,179)"/>
<path d="M0 0 C2.35832377 1.83949254 2.93567525 2.485402 3.3125 5.5 C3 8 3 8 1 11 C0.835 11.86625 0.67 12.7325 0.5 13.625 C0.335 14.40875 0.17 15.1925 0 16 C-0.99 16.495 -0.99 16.495 -2 17 C-2 18.32 -2 19.64 -2 21 C-1.34 21.04125 -0.68 21.0825 0 21.125 C7.04535276 23.17989456 11.53138626 28.04134004 15.08984375 34.265625 C16.93699225 37.78551313 17.4046826 39.95317398 17 44 C15.4375 46.375 15.4375 46.375 13 48 C10.66756828 48.06485906 8.33226025 48.07075702 6 48 C6.4716529 57.94194675 7.13821582 67.83925673 8.0625 77.75 C8.84399306 86.20497058 9.26504809 94.50373637 9 103 C5.88450128 104.55774936 2.3955612 104.56480622 -1 104 C-2.60498047 102.98999023 -2.60498047 102.98999023 -4 101 C-4.26159322 98.20010871 -4.34904338 95.62772071 -4.29296875 92.83203125 C-4.28660149 91.63981209 -4.28660149 91.63981209 -4.28010559 90.42350769 C-4.2633193 87.88615979 -4.22566824 85.34960762 -4.1875 82.8125 C-4.17245305 81.09180835 -4.15876466 79.37110424 -4.14648438 77.65039062 C-4.11341607 73.43328738 -4.06163495 69.21677858 -4 65 C-6.06317919 65.03322836 -8.12579092 65.10283492 -10.1875 65.1875 C-11.91033203 65.23970703 -11.91033203 65.23970703 -13.66796875 65.29296875 C-17.95815617 66.20331333 -19.43505672 67.46482616 -22 71 C-22.72733957 74.51652562 -22.72733957 74.51652562 -22.6015625 78.3828125 C-22.60956879 79.07889618 -22.61757507 79.77497986 -22.62582397 80.49215698 C-22.64880892 82.7037054 -22.63945803 84.91340363 -22.625 87.125 C-22.62115114 89.34338857 -22.62457831 91.56096898 -22.64559937 93.77926636 C-22.66321736 95.78652348 -22.6557273 97.79395418 -22.64697266 99.80126953 C-23 103 -23 103 -24.3659668 104.94018555 C-27.76909774 107.1474157 -32.18441661 105.54508334 -36 105 C-35.42593407 97.30015184 -34.38163319 89.78147664 -33 82.1875 C-32.22078003 77.82087187 -32.22078003 77.82087187 -31.45483398 73.4519043 C-31.09379141 71.50560771 -30.64236625 69.57611865 -30.16015625 67.65625 C-29.93632807 63.94397771 -31.33050265 62.32308296 -33.4375 59.3125 C-37.82447002 52.20560858 -38.17830232 47.21199983 -36.36328125 39.18359375 C-34.21488101 32.19400203 -30.69426771 26.63689943 -25 22 C-22.42527844 20.72598963 -19.95109552 19.76570966 -17.19921875 18.94921875 C-14.42290653 17.75091703 -13.41467591 16.6643063 -12 14 C-12.00100922 11.52664048 -12.00100922 11.52664048 -12.5625 9 C-13.16393376 4.31296446 -13.16393376 4.31296446 -11.625 1.375 C-7.86259029 -0.59578604 -4.16379044 -0.85116158 0 0 Z " fill="#70845C" transform="translate(87,187)"/>
<path d="M0 0 C0 0.99 0 1.98 0 3 C-0.99 3.66 -1.98 4.32 -3 5 C-2.34 6.65 -1.68 8.3 -1 10 C-1.99 10.495 -1.99 10.495 -3 11 C-4.0409066 12.64142963 -5.04504326 14.30712215 -6 16 C-5.36191406 16.55429687 -4.72382813 17.10859375 -4.06640625 17.6796875 C-3.24011719 18.40414063 -2.41382813 19.12859375 -1.5625 19.875 C-0.73878906 20.59429687 0.08492187 21.31359375 0.93359375 22.0546875 C3 24 3 24 4 26 C4.33 22.04 4.66 18.08 5 14 C13.91 14 22.82 14 32 14 C32 23.24 32 32.48 32 42 C22.1 42.495 22.1 42.495 12 43 C13.0725 44.134375 14.145 45.26875 15.25 46.4375 C18.92019237 50.59903658 21.07323159 54.83003755 23 60 C23.99 59.67 24.98 59.34 26 59 C32.47933884 58.65289256 32.47933884 58.65289256 36 61 C33.54800572 63.00787626 31.08740624 65.00491174 28.625 67 C27.92632812 67.57234375 27.22765625 68.1446875 26.5078125 68.734375 C25.8375 69.27578125 25.1671875 69.8171875 24.4765625 70.375 C23.85861816 70.87773437 23.24067383 71.38046875 22.60400391 71.8984375 C21 73 21 73 19 73 C18.79246094 72.3709375 18.58492188 71.741875 18.37109375 71.09375 C15.41990587 62.89463387 11.51830693 56.52718723 3.5625 52.5 C2.386875 52.005 1.21125 51.51 0 51 C-0.226875 51.7425 -0.45375 52.485 -0.6875 53.25 C-2.8910272 57.86691414 -6.33232129 59.86566301 -10.9375 61.75 C-14.37346978 62.95617535 -17.33911745 63.27456619 -21 63 C-20.67 63.66 -20.34 64.32 -20 65 C-19.75 68.4375 -19.75 68.4375 -20 72 C-21.515625 73.72265625 -21.515625 73.72265625 -23 75 C-24.50519387 72.37785672 -26.00431319 69.75255792 -27.5 67.125 C-27.92925781 66.37863281 -28.35851562 65.63226563 -28.80078125 64.86328125 C-29.20683594 64.14785156 -29.61289063 63.43242187 -30.03125 62.6953125 C-30.40830078 62.03547363 -30.78535156 61.37563477 -31.17382812 60.69580078 C-32 59 -32 59 -32 57 C-31.05898437 56.82984375 -30.11796875 56.6596875 -29.1484375 56.484375 C-19.79541543 54.91010696 -19.79541543 54.91010696 -12 50 C-8.37148597 42.57803948 -9.29942359 34.40066175 -11.625 26.6875 C-13.29639363 22.1166278 -15.32564986 18.76984495 -18.73046875 15.3046875 C-20.69728422 13.28340637 -20.9982052 12.0161532 -21.3125 9.1875 C-20.91034486 5.08551753 -20.18026445 3.63729247 -17 1 C-13.2052349 0.38726729 -9.56648932 0.57407498 -5.859375 1.58203125 C-3.33248192 2.15005133 -2.15677208 1.30946876 0 0 Z " fill="#090909" transform="translate(245,245)"/>
<path d="M0 0 C1.21804321 0.06900513 1.21804321 0.06900513 2.46069336 0.1394043 C3.81130859 0.20998047 3.81130859 0.20998047 5.18920898 0.28198242 C6.60556641 0.37189453 6.60556641 0.37189453 8.05053711 0.46362305 C8.96770508 0.51196289 9.88487305 0.56030273 10.82983398 0.61010742 C16.57790605 0.93193428 22.27220421 1.46662719 27.98803711 2.15112305 C28.18822566 8.53917091 27.88405583 14.74448769 27.11303711 21.08862305 C25.71591324 32.67379089 24.9811055 44.30350017 24.20825195 55.9440918 C24.01383772 58.77538375 23.79859999 61.60367161 23.57006836 64.43237305 C23.48414429 65.55748291 23.48414429 65.55748291 23.39648438 66.70532227 C23.25018409 68.61737007 23.09602816 70.52881246 22.94116211 72.44018555 C22.67665217 75.30292231 22.67665217 75.30292231 24.98803711 77.15112305 C24.98803711 78.47112305 24.98803711 79.79112305 24.98803711 81.15112305 C19.03100586 81.54174805 19.03100586 81.54174805 16.98803711 81.15112305 C12.81331895 77.23316432 13.32297684 72.25998139 13.03881836 66.87768555 C12.98014808 62.57218933 13.28349446 58.39858711 13.72631836 54.11987305 C14.78066963 45.4235187 14.78066963 45.4235187 12.98803711 37.15112305 C12.8367988 35.63154664 12.73922018 34.10639803 12.67163086 32.58081055 C12.62973633 31.68491211 12.5878418 30.78901367 12.54467773 29.8659668 C12.50536133 28.92881836 12.46604492 27.99166992 12.42553711 27.02612305 C12.38235352 26.08124023 12.33916992 25.13635742 12.29467773 24.1628418 C12.18844639 21.82575213 12.08640534 19.48855474 11.98803711 17.15112305 C8.79300398 20.11237327 6.52445998 22.26875753 5.42553711 26.52612305 C4.62766613 29.55253022 3.81520527 31.40035403 1.99975586 34.01831055 C-1.34254681 39.68625748 -1.14553272 46.49362973 -1.63696289 52.90112305 C-1.84750103 55.52206928 -2.07185531 58.14103077 -2.30102539 60.76049805 C-2.39077637 61.91517578 -2.48052734 63.06985352 -2.57299805 64.25952148 C-3.01196289 67.15112305 -3.01196289 67.15112305 -5.01196289 70.15112305 C-5.46590841 72.43025242 -5.46590841 72.43025242 -5.63696289 74.83862305 C-5.71172852 75.64686523 -5.78649414 76.45510742 -5.86352539 77.2878418 C-5.91250977 77.90272461 -5.96149414 78.51760742 -6.01196289 79.15112305 C-8.61577286 79.34588444 -11.21971822 79.53220919 -13.82446289 79.71362305 C-14.93144531 79.79773438 -14.93144531 79.79773438 -16.06079102 79.88354492 C-19.37984805 80.10882029 -21.82428853 80.21368117 -25.01196289 79.15112305 C-23.66987123 75.12484805 -21.52494488 74.39943152 -18.01196289 72.15112305 C-15.54648872 70.28076333 -15.08777248 69.45436142 -14.32446289 66.40112305 C-13.95413664 63.093895 -13.95413664 63.093895 -14.01196289 59.52612305 C-14.01196289 56.15112305 -14.01196289 56.15112305 -13.53881836 54.25976562 C-12.93276672 51.83415485 -12.74910525 49.53237764 -12.58227539 47.0378418 C-12.51089355 46.04421631 -12.43951172 45.05059082 -12.3659668 44.02685547 C-12.25260986 42.44868042 -12.25260986 42.44868042 -12.13696289 40.83862305 C-8.98675838 0.67501558 -8.98675838 0.67501558 0 0 Z " fill="#1E466B" transform="translate(424.011962890625,252.848876953125)"/>
<path d="M0 0 C1.79244141 0.01740234 1.79244141 0.01740234 3.62109375 0.03515625 C5.41740234 0.04869141 5.41740234 0.04869141 7.25 0.0625 C8.17683594 0.07410156 9.10367188 0.08570313 10.05859375 0.09765625 C10.07841309 1.17772949 10.09823242 2.25780273 10.11865234 3.37060547 C10.19460998 7.37019538 10.28334191 11.36941677 10.37597656 15.36865234 C10.41430716 17.10100032 10.44915281 18.83342899 10.48046875 20.56591797 C10.5260314 23.05335374 10.58403878 25.54023191 10.64453125 28.02734375 C10.65608246 28.80447723 10.66763367 29.58161072 10.67953491 30.3822937 C10.64653143 34.704166 10.64653143 34.704166 13.05859375 38.09765625 C15.69859375 38.42765625 18.33859375 38.75765625 21.05859375 39.09765625 C21.05859375 49.98765625 21.05859375 60.87765625 21.05859375 72.09765625 C20.39859375 72.09765625 19.73859375 72.09765625 19.05859375 72.09765625 C20.78008639 75.36590281 20.78008639 75.36590281 24.12109375 76.03515625 C25.09046875 76.38578125 26.05984375 76.73640625 27.05859375 77.09765625 C27.38859375 78.41765625 27.71859375 79.73765625 28.05859375 81.09765625 C22.11859375 81.09765625 16.17859375 81.09765625 10.05859375 81.09765625 C10.38859375 78.12765625 10.71859375 75.15765625 11.05859375 72.09765625 C9.57359375 71.60265625 9.57359375 71.60265625 8.05859375 71.09765625 C6.73859375 60.20765625 5.41859375 49.31765625 4.05859375 38.09765625 C3.06859375 48.98765625 2.07859375 59.87765625 1.05859375 71.09765625 C-0.92140625 71.59265625 -0.92140625 71.59265625 -2.94140625 72.09765625 C-2.61140625 73.41765625 -2.28140625 74.73765625 -1.94140625 76.09765625 C0.36859375 76.75765625 2.67859375 77.41765625 5.05859375 78.09765625 C5.38859375 79.41765625 5.71859375 80.73765625 6.05859375 82.09765625 C0.11859375 82.09765625 -5.82140625 82.09765625 -11.94140625 82.09765625 C-11.90885417 79.65625 -11.87630208 77.21484375 -11.84375 74.7734375 C-11.85694651 72.14564198 -11.85694651 72.14564198 -12.45507812 69.83007812 C-13.01244884 66.69850529 -12.95584074 63.88050921 -12.8203125 60.703125 C-12.74780273 58.90004883 -12.74780273 58.90004883 -12.67382812 57.06054688 C-12.61775391 55.81466797 -12.56167969 54.56878906 -12.50390625 53.28515625 C-12.45169922 52.01994141 -12.39949219 50.75472656 -12.34570312 49.45117188 C-12.21627241 46.33306819 -12.08131496 43.21530447 -11.94140625 40.09765625 C-11.28140625 40.09765625 -10.62140625 40.09765625 -9.94140625 40.09765625 C-9.93729736 39.09387939 -9.93318848 38.09010254 -9.92895508 37.0559082 C-9.90712313 33.31873781 -9.85279331 29.58261424 -9.78881836 25.84594727 C-9.76567339 24.23114076 -9.75125082 22.61618404 -9.74584961 21.0012207 C-9.73653351 18.67434477 -9.69549257 16.34981949 -9.6484375 14.0234375 C-9.65237015 13.30553543 -9.6563028 12.58763336 -9.66035461 11.84797668 C-9.54537409 7.86568924 -9.06954967 6.24909619 -6.4597168 3.16479492 C-5.62867432 2.48263916 -4.79763184 1.8004834 -3.94140625 1.09765625 C-2.94140625 0.09765625 -2.94140625 0.09765625 0 0 Z " fill="#FCF4E0" transform="translate(72.94140625,251.90234375)"/>
<path d="M0 0 C0.33 0.66 0.66 1.32 1 2 C2.0209375 2.12375 2.0209375 2.12375 3.0625 2.25 C9.19050444 3.81459688 13.62275656 7.97523435 16.9375 13.25 C19.32158674 17.42013138 20.49396834 20.0603166 20 25 C18.4375 27.375 18.4375 27.375 16 29 C13.66756828 29.06485906 11.33226025 29.07075702 9 29 C9.4716529 38.94194675 10.13821582 48.83925673 11.0625 58.75 C11.84399306 67.20497058 12.26504809 75.50373637 12 84 C8.88450128 85.55774936 5.3955612 85.56480622 2 85 C0.39501953 83.98999023 0.39501953 83.98999023 -1 82 C-1.26159322 79.20010871 -1.34904338 76.62772071 -1.29296875 73.83203125 C-1.28872391 73.03721848 -1.28447906 72.2424057 -1.28010559 71.42350769 C-1.2633193 68.88615979 -1.22566824 66.34960762 -1.1875 63.8125 C-1.17245305 62.09180835 -1.15876466 60.37110424 -1.14648438 58.65039062 C-1.11341607 54.43328738 -1.06163495 50.21677858 -1 46 C-3.31 46 -5.62 46 -8 46 C-8 45.67 -8 45.34 -8 45 C-6.02 45 -4.04 45 -2 45 C-2 37.74 -2 30.48 -2 23 C-3.65 23 -5.3 23 -7 23 C-6.67 21.35 -6.34 19.7 -6 18 C-4.68 18 -3.36 18 -2 18 C-1.67 13.71 -1.34 9.42 -1 5 C-1.66 5 -2.32 5 -3 5 C-2.67 4.01 -2.34 3.02 -2 2 C-2 2.66 -2 3.32 -2 4 C-1.34 4 -0.68 4 0 4 C0 2.68 0 1.36 0 0 Z " fill="#6C8059" transform="translate(84,206)"/>
<path d="M0 0 C4.61771814 2.30389378 7.30652513 5.47990937 9.00390625 10.34375 C9.86558917 15.6861841 9.35206608 18.28238974 6.37890625 22.78125 C5.26862187 24.31285948 4.14302257 25.83346094 3.00390625 27.34375 C1.84333837 28.93728912 0.69691054 30.54124388 -0.43359375 32.15625 C-0.94792969 32.86394531 -1.46226562 33.57164062 -1.9921875 34.30078125 C-3.20019429 36.28074095 -3.20019429 36.28074095 -2.71875 38.41796875 C-2.36103516 39.37123047 -2.36103516 39.37123047 -1.99609375 40.34375 C-1.66609375 41.33375 -1.33609375 42.32375 -0.99609375 43.34375 C-2.99609375 43.34375 -2.99609375 43.34375 -4.29296875 42.12890625 C-7.65188888 38.14696061 -10.65857477 34.05287349 -13.47265625 29.66796875 C-14.5027783 28.09637228 -15.58326125 26.55683831 -16.70703125 25.05078125 C-19.24710831 21.58649775 -21.38449763 18.65659895 -21.68359375 14.28125 C-20.65250765 8.37593873 -18.21579258 4.31681563 -13.74609375 0.34375 C-9.13828723 -1.33181601 -4.69311907 -1.54294326 0 0 Z " fill="#2CA448" transform="translate(131.99609375,293.65625)"/>
<path d="M0 0 C5.1328118 2.37630176 8.05212479 5.76164633 10 11 C10.9844178 19.01597352 7.16493391 24.04261474 2.4375 30.1875 C0.21267248 33.09183149 -1.97043404 35.95565106 -4 39 C-11.10381067 35.97515159 -15.36141656 27.53785311 -19 21 C-20.56840852 16.29477445 -20.54895539 12.47351184 -18.8125 7.8125 C-14.01371218 0.36610511 -8.34330311 -0.89850957 0 0 Z " fill="#0679F6" transform="translate(383,298)"/>
<path d="M0 0 C1.32 0 2.64 0 4 0 C4.33 0.66 4.66 1.32 5 2 C5.99 1.34 6.98 0.68 8 0 C14.67337705 -0.76579737 14.67337705 -0.76579737 17.8203125 1.05078125 C19.99009082 2.82748379 21.73754441 4.47508882 23 7 C23.35017306 12.3401391 23.46830225 15.66462219 20 20 C18.1114519 22.02844055 16.83181244 22.89223483 14.0703125 23.25 C10.20237294 23.36334621 8.26367158 23.17578106 5 21 C4.67 25.29 4.34 29.58 4 34 C2.68 34 1.36 34 0 34 C0 22.78 0 11.56 0 0 Z " fill="#37AD51" transform="translate(323,178)"/>
<path d="M0 0 C17.66666667 0 17.66666667 0 22.875 4.6875 C24.53537077 8.10048436 24.67062478 11.32614249 24 15 C21.8755173 18.44312714 20.85147359 19.71617547 17 21 C14.77181559 21.06937062 12.54165476 21.08457084 10.3125 21.0625 C8.54326172 21.04896484 8.54326172 21.04896484 6.73828125 21.03515625 C5.38283203 21.01775391 5.38283203 21.01775391 4 21 C4 24.3 4 27.6 4 31 C2.68 31 1.36 31 0 31 C0 20.77 0 10.54 0 0 Z " fill="#2A90FF" transform="translate(174,170)"/>
<path d="M0 0 C0.33 0.66 0.66 1.32 1 2 C1.60328125 2.29390625 2.2065625 2.5878125 2.828125 2.890625 C7.70867898 5.38356984 11.32033442 10.00098359 13.0625 15.125 C11.50702288 19.33393808 8.79634961 20.5833899 4.94140625 22.68359375 C1.18775603 24.36351423 -2.55078162 25.44886579 -6.5546875 26.359375 C-8.95084738 26.98712296 -10.87917902 27.72560533 -13 29 C-13.33 29.66 -13.66 30.32 -14 31 C-16.0625 28.8125 -16.0625 28.8125 -18 26 C-17.75 23.1875 -17.75 23.1875 -17 21 C-16.34 21 -15.68 21 -15 21 C-14.88011719 20.28328125 -14.76023437 19.5665625 -14.63671875 18.828125 C-13.58612507 14.16168436 -11.74225712 9.92691219 -9 6 C-5.875 5.1875 -5.875 5.1875 -3 5 C-1.08255407 2.55690423 -1.08255407 2.55690423 0 0 Z " fill="#FEC2A0" transform="translate(465,212)"/>
<path d="M0 0 C2.97 0.99 5.94 1.98 9 3 C9 6.96 9 10.92 9 15 C7.68 15.33 6.36 15.66 5 16 C4.67 17.32 4.34 18.64 4 20 C5.65 20 7.3 20 9 20 C9 27.26 9 34.52 9 42 C-2.625 43.25 -2.625 43.25 -6 41 C-5.56061778 36.95768354 -4.83701343 33.38373815 -3.53125 29.53125 C-1.69789082 23.53327069 -1.22534627 17.60935746 -0.8125 11.375 C-0.73064453 10.27542969 -0.64878906 9.17585937 -0.56445312 8.04296875 C-0.36633397 5.36253312 -0.17838161 2.68180892 0 0 Z " fill="#262221" transform="translate(73,209)"/>
<path d="M0 0 C2.20765877 1.66625674 2.91202837 2.6236071 3.546875 5.33984375 C3.64742188 6.62568359 3.64742188 6.62568359 3.75 7.9375 C3.82734375 8.79214844 3.9046875 9.64679688 3.984375 10.52734375 C4 13 4 13 3.42578125 15.14453125 C2.73734604 17.22288933 2.73734604 17.22288933 4.4375 19.75 C4.953125 20.4925 5.46875 21.235 6 22 C1.65865385 27.82980769 1.65865385 27.82980769 -1.67578125 28.69140625 C-2.44277344 28.79324219 -3.20976562 28.89507812 -4 29 C-14.70396425 15.80333174 -14.70396425 15.80333174 -14.42578125 7.12109375 C-13.7242986 3.62655172 -11.77466412 2.06486632 -9 0 C-5.45026831 -1.1832439 -3.60040463 -0.90010116 0 0 Z " fill="#F8BD9C" transform="translate(441,179)"/>
<path d="M0 0 C1.953125 0.6484375 1.953125 0.6484375 4 2 C4.609375 4.6015625 4.609375 4.6015625 4.75 7.625 C4.80671875 8.62789063 4.8634375 9.63078125 4.921875 10.6640625 C4.96054687 11.82035156 4.96054687 11.82035156 5 13 C5.33 13 5.66 13 6 13 C6.086985 16.77068832 6.14038579 20.54111932 6.1875 24.3125 C6.21263672 25.38435547 6.23777344 26.45621094 6.26367188 27.56054688 C6.27817383 29.10258789 6.27817383 29.10258789 6.29296875 30.67578125 C6.31653442 32.0975769 6.31653442 32.0975769 6.34057617 33.5480957 C6 36 6 36 4.63671875 37.828125 C1.30572654 40.21308362 -3.16627134 38.54767552 -7 38 C-6.41395965 30.27129606 -5.40350564 22.69476627 -4.0625 15.0625 C-3.89298828 14.04865234 -3.72347656 13.03480469 -3.54882812 11.99023438 C-3.37931641 11.01505859 -3.20980469 10.03988281 -3.03515625 9.03515625 C-2.8844165 8.1625415 -2.73367676 7.28992676 -2.57836914 6.39086914 C-2.00442097 4.01827547 -1.18079169 2.12764422 0 0 Z " fill="#6E825B" transform="translate(58,254)"/>
<path d="M0 0 C2.35832377 1.83949254 2.93567525 2.485402 3.3125 5.5 C3 8 3 8 1 11 C0.835 11.86625 0.67 12.7325 0.5 13.625 C0.335 14.40875 0.17 15.1925 0 16 C-0.66 16.33 -1.32 16.66 -2 17 C-2.37366113 18.99285937 -2.70740515 20.99363529 -3 23 C-3.33 23.33 -3.66 23.66 -4 24 C-4.07148199 25.35243917 -4.08399454 26.70834367 -4.0625 28.0625 C-4.041875 29.361875 -4.02125 30.66125 -4 32 C-4.33 32 -4.66 32 -5 32 C-5 29.69 -5 27.38 -5 25 C-5.94875 24.855625 -6.8975 24.71125 -7.875 24.5625 C-11 24 -11 24 -13 23 C-13.33 27.29 -13.66 31.58 -14 36 C-14.33 36 -14.66 36 -15 36 C-15.08103404 33.08277452 -15.14051081 30.16780484 -15.1875 27.25 C-15.21263672 26.425 -15.23777344 25.6 -15.26367188 24.75 C-15.32123816 19.99118688 -15.12922569 17.73488228 -12 14 C-12.00100922 11.52664048 -12.00100922 11.52664048 -12.5625 9 C-13.16393376 4.31296446 -13.16393376 4.31296446 -11.625 1.375 C-7.86259029 -0.59578604 -4.16379044 -0.85116158 0 0 Z " fill="#4D463D" transform="translate(87,187)"/>
<path d="M0 0 C3.14194806 1.65989709 5.31255973 3.03133416 7.375 5.9375 C8 8 8 8 8 13 C1.73 13 -4.54 13 -11 13 C-9.23148964 16.18074165 -9.23148964 16.18074165 -7 19 C-5.5653041 19.09894455 -4.12559603 19.12970735 -2.6875 19.125 C-1.90761719 19.12757813 -1.12773437 19.13015625 -0.32421875 19.1328125 C1.91251539 19.00499912 3.85266979 18.61913869 6 18 C4.25 21.875 4.25 21.875 2 23 C-2.28819956 23.43808718 -5.94422448 23.44926618 -9.9375 21.75 C-12.75887973 19.35610205 -13.80613239 17.25503765 -14.37109375 13.59765625 C-14.55148068 6.71111983 -14.55148068 6.71111983 -11.625 2.9375 C-7.49878454 -0.10803998 -5.16827351 -0.43068946 0 0 Z " fill="#2990FF" transform="translate(239,178)"/>
<path d="M0 0 C3.14194806 1.65989709 5.31255973 3.03133416 7.375 5.9375 C8 8 8 8 8 13 C1.73 13 -4.54 13 -11 13 C-9.23148964 16.18074165 -9.23148964 16.18074165 -7 19 C-5.5653041 19.09894455 -4.12559603 19.12970735 -2.6875 19.125 C-1.90761719 19.12757813 -1.12773437 19.13015625 -0.32421875 19.1328125 C1.91251539 19.00499912 3.85266979 18.61913869 6 18 C4.25 21.875 4.25 21.875 2 23 C-2.28819956 23.43808718 -5.94422448 23.44926618 -9.9375 21.75 C-12.75887973 19.35610205 -13.80613239 17.25503765 -14.37109375 13.59765625 C-14.55148068 6.71111983 -14.55148068 6.71111983 -11.625 2.9375 C-7.49878454 -0.10803998 -5.16827351 -0.43068946 0 0 Z " fill="#2990FF" transform="translate(215,178)"/>
<path d="M0 0 C9.79716981 -0.43867925 9.79716981 -0.43867925 14 3 C14.99 4.485 14.99 4.485 16 6 C16.66 5.34 17.32 4.68 18 4 C21.5 3.75 21.5 3.75 25 4 C27 6 27 6 27 10 C24.36 10 21.72 10 19 10 C19 10.66 19 11.32 19 12 C21.31 12 23.62 12 26 12 C25.67 12.99 25.34 13.98 25 15 C22.69 15 20.38 15 18 15 C17.34 13.68 16.68 12.36 16 11 C15.21625 11.66 14.4325 12.32 13.625 13 C9.3089793 15.94651413 5.06071112 15.27355195 0 15 C0 10.05 0 5.1 0 0 Z " fill="#1B89FF" transform="translate(249,362)"/>
<path d="M0 0 C7.48071749 4.65201794 7.48071749 4.65201794 8.75390625 7.95703125 C9 9.875 9 9.875 9 13 C11.475 13.495 11.475 13.495 14 14 C14 15.32 14 16.64 14 18 C14.66 18 15.32 18 16 18 C16 18.99 16 19.98 16 21 C15.05125 20.979375 14.1025 20.95875 13.125 20.9375 C10.09333717 20.77448174 10.09333717 20.77448174 8 22 C8 21.01 8 20.02 8 19 C4.50244327 18.93004887 1.31364266 18.93727147 -2.125 19.625 C-5.40765828 20.05317282 -7.07609346 19.46195327 -10 18 C-9.74086272 11.65113652 -7.61254026 8.3311386 -3 4 C-2.34 3.67 -1.68 3.34 -1 3 C-0.67 2.01 -0.34 1.02 0 0 Z " fill="#FEC29F" transform="translate(415,209)"/>
<path d="M0 0 C0.99 0 1.98 0 3 0 C3 0.99 3 1.98 3 3 C3.99 3 4.98 3 6 3 C6 3.99 6 4.98 6 6 C5.34 6 4.68 6 4 6 C4 7.65 4 9.3 4 11 C5.98 10.67 7.96 10.34 10 10 C10.495 11.98 10.495 11.98 11 14 C9.54207116 14.05399736 8.08357288 14.09279177 6.625 14.125 C5.81289063 14.14820313 5.00078125 14.17140625 4.1640625 14.1953125 C2 14 2 14 0 12 C-0.125 8.875 -0.125 8.875 0 6 C-2.64 5.67 -5.28 5.34 -8 5 C-8 5.66 -8 6.32 -8 7 C-5.03 7.495 -5.03 7.495 -2 8 C-1.375 9.875 -1.375 9.875 -1 12 C-3.40829792 14.40829792 -3.99283556 14.25602579 -7.28125 14.265625 C-8.12300781 14.26820313 -8.96476562 14.27078125 -9.83203125 14.2734375 C-11.15267578 14.26183594 -11.15267578 14.26183594 -12.5 14.25 C-13.38042969 14.25773437 -14.26085937 14.26546875 -15.16796875 14.2734375 C-16.00972656 14.27085937 -16.85148437 14.26828125 -17.71875 14.265625 C-18.49154297 14.26336914 -19.26433594 14.26111328 -20.06054688 14.25878906 C-22 14 -22 14 -24 12 C-24.1953125 9.8359375 -24.1953125 9.8359375 -24.125 7.375 C-24.10695313 6.55773437 -24.08890625 5.74046875 -24.0703125 4.8984375 C-24.04710937 4.27195312 -24.02390625 3.64546875 -24 3 C-22.68 3 -21.36 3 -20 3 C-20 5.64 -20 8.28 -20 11 C-18.68 11 -17.36 11 -16 11 C-16 8.36 -16 5.72 -16 3 C-14.68 3 -13.36 3 -12 3 C-11.67 5.64 -11.34 8.28 -11 11 C-8.03 11.495 -8.03 11.495 -5 12 C-5 11.34 -5 10.68 -5 10 C-6.98 9.34 -8.96 8.68 -11 8 C-10.67 6.35 -10.34 4.7 -10 3 C-6.7 3 -3.4 3 0 3 C0 2.01 0 1.02 0 0 Z " fill="#278FFF" transform="translate(418,363)"/>
<path d="M0 0 C3.125 1.8125 3.125 1.8125 5 4 C5 4.99 5 5.98 5 7 C2.525 6.505 2.525 6.505 0 6 C0 5.34 0 4.68 0 4 C-4.00254456 3.90818866 -4.00254456 3.90818866 -8 4 C-9.29633621 5.06645115 -9.29633621 5.06645115 -9.0625 7.5625 C-9.041875 8.366875 -9.02125 9.17125 -9 10 C-8.15695312 10.33773437 -7.31390625 10.67546875 -6.4453125 11.0234375 C-5.34960938 11.46945313 -4.25390625 11.91546875 -3.125 12.375 C-2.03445313 12.81585938 -0.94390625 13.25671875 0.1796875 13.7109375 C3 15 3 15 5 17 C5.78837421 23.98274296 5.78837421 23.98274296 3.0625 27.5 C-1.07083546 29.52449084 -4.47898263 29.81754383 -9 29 C-12.0625 27.25 -12.0625 27.25 -14 25 C-14 23.68 -14 22.36 -14 21 C-12.68 21 -11.36 21 -10 21 C-9.34 22.32 -8.68 23.64 -8 25 C-5.66705225 25.04241723 -3.33297433 25.04092937 -1 25 C0.29633621 23.93354885 0.29633621 23.93354885 0.0625 21.4375 C0.041875 20.633125 0.02125 19.82875 0 19 C-0.75925781 18.67386719 -1.51851563 18.34773438 -2.30078125 18.01171875 C-3.29464844 17.57472656 -4.28851563 17.13773438 -5.3125 16.6875 C-6.29863281 16.25824219 -7.28476562 15.82898438 -8.30078125 15.38671875 C-10.78068668 14.11267182 -12.32911967 13.20556204 -14 11 C-14.48258091 7.20829285 -14.51879045 4.91967398 -12.625 1.5625 C-8.54294314 -0.86729575 -4.62610295 -0.75482455 0 0 Z " fill="#35AC51" transform="translate(281,172)"/>
<path d="M0 0 C1.32 0 2.64 0 4 0 C4 3.3 4 6.6 4 10 C4.99 9.34 5.98 8.68 7 8 C13.73741088 7.3479925 13.73741088 7.3479925 17.73828125 9.4140625 C21.13335827 13.29582586 20.55128342 16.77595775 20.3125 21.75 C20.28994141 22.63816406 20.26738281 23.52632812 20.24414062 24.44140625 C20.18532552 26.62932812 20.10321268 28.81379671 20 31 C19.01 31 18.02 31 17 31 C16.93941406 29.87980469 16.87882812 28.75960937 16.81640625 27.60546875 C16.73198576 26.13280016 16.64733851 24.66014456 16.5625 23.1875 C16.52318359 22.44951172 16.48386719 21.71152344 16.44335938 20.95117188 C16.25618965 17.76928658 16.01279207 15.03837622 15 12 C10.9899066 11.82135369 10.9899066 11.82135369 7 12 C3.97906785 15.02093215 4.53323166 18.56372072 4.375 22.625 C4.33632813 23.42679688 4.29765625 24.22859375 4.2578125 25.0546875 C4.16346069 27.03607556 4.08063785 29.01800645 4 31 C2.68 31 1.36 31 0 31 C0 20.77 0 10.54 0 0 Z " fill="#31AA4C" transform="translate(290,170)"/>
<path d="M0 0 C0.66 0 1.32 0 2 0 C2 0.99 2 1.98 2 3 C5.465 2.505 5.465 2.505 9 2 C9.495 4.97 9.495 4.97 10 8 C9.34 8.33 8.68 8.66 8 9 C8 9.66 8 10.32 8 11 C4.33360752 11.11728126 0.6677048 11.18760891 -3 11.25 C-4.02996094 11.28351563 -5.05992187 11.31703125 -6.12109375 11.3515625 C-12.92398736 11.43822357 -17.17438809 10.55698419 -23 7 C-21.35 5.02 -19.7 3.04 -18 1 C-13.25 2.875 -13.25 2.875 -11 4 C-9.46331135 4.22467831 -7.92031946 4.40796805 -6.375 4.5625 C-5.55773437 4.64628906 -4.74046875 4.73007812 -3.8984375 4.81640625 C-3.27195312 4.87699219 -2.64546875 4.93757813 -2 5 C-1.855625 4.360625 -1.71125 3.72125 -1.5625 3.0625 C-1 1 -1 1 0 0 Z " fill="#E9E9E9" transform="translate(263,271)"/>
<path d="M0 0 C12.35380117 -0.49415205 12.35380117 -0.49415205 15.390625 1.828125 C17 4 17 4 17.5 7 C16.87583536 10.74498782 15.99314797 11.71112214 13 14 C8.60786271 14.53045136 4.44112074 14.17764483 0 14 C0 9.38 0 4.76 0 0 Z " fill="#FCFDFF" transform="translate(178,174)"/>
<path d="M0 0 C2.9375 1.9375 2.9375 1.9375 5 5 C5.3249639 8.19921354 4.9674426 10.93839811 4 14 C1.77072631 16.72466785 0.46821157 16.93171915 -3 17.4375 C-6 17 -6 17 -8.375 15.5625 C-10.77513557 11.77767083 -10.7842297 8.3612774 -10 4 C-7.36147249 -0.16075491 -4.78558691 -0.87898535 0 0 Z " fill="#F8FCF9" transform="translate(337,181)"/>
<path d="M0 0 C1.32 0 2.64 0 4 0 C4 5.28 4 10.56 4 16 C2.68 16 1.36 16 0 16 C-0.33 14.68 -0.66 13.36 -1 12 C-1.66 12 -2.32 12 -3 12 C-3.33 13.32 -3.66 14.64 -4 16 C-4.99 16 -5.98 16 -7 16 C-7.66 14.35 -8.32 12.7 -9 11 C-10.485 13.475 -10.485 13.475 -12 16 C-13.890625 15.81640625 -13.890625 15.81640625 -16 15 C-17.046875 12.71484375 -17.046875 12.71484375 -17.75 9.9375 C-17.99234375 9.01839844 -18.2346875 8.09929687 -18.484375 7.15234375 C-18.65453125 6.44207031 -18.8246875 5.73179687 -19 5 C-17.125 5.3125 -17.125 5.3125 -15 6 C-14.01 7.485 -14.01 7.485 -13 9 C-12.34 7.68 -11.68 6.36 -11 5 C-9.125 5.25 -9.125 5.25 -7 6 C-5.75 8.0625 -5.75 8.0625 -5 10 C-4.62875 8.5459375 -4.62875 8.5459375 -4.25 7.0625 C-3.8375 6.051875 -3.425 5.04125 -3 4 C-0.875 3.125 -0.875 3.125 1 3 C0.67 2.01 0.34 1.02 0 0 Z " fill="#1284FF" transform="translate(342,361)"/>
<path d="M0 0 C1.875 1.125 1.875 1.125 3 3 C3.4375 6.5 3.4375 6.5 3 10 C1 11.9375 1 11.9375 -1 13 C-1 11.68 -1 10.36 -1 9 C-2.17369141 9.12568359 -2.17369141 9.12568359 -3.37109375 9.25390625 C-4.38300781 9.35574219 -5.39492188 9.45757812 -6.4375 9.5625 C-7.95150391 9.71912109 -7.95150391 9.71912109 -9.49609375 9.87890625 C-10.32238281 9.91886719 -11.14867187 9.95882812 -12 10 C-12.33 9.67 -12.66 9.34 -13 9 C-12.9375 5.625 -12.9375 5.625 -12 2 C-7.87073118 -1.07294424 -4.88955732 -1.52119561 0 0 Z " fill="#21201D" transform="translate(441,179)"/>
<path d="M0 0 C4.26538263 2.03286321 7.65689427 4.65689427 11 8 C5.10180629 13.09389457 2.10148299 15.3115955 -6 15 C-5.39644592 11.14974121 -4.23227397 8.13898841 -2.4375 4.6875 C-1.98246094 3.80449219 -1.52742188 2.92148438 -1.05859375 2.01171875 C-0.53458984 1.01591797 -0.53458984 1.01591797 0 0 Z " fill="#FDF9F8" transform="translate(456,218)"/>
<path d="M0 0 C2.64 0 5.28 0 8 0 C8.33 1.32 8.66 2.64 9 4 C11.31 4.66 13.62 5.32 16 6 C16.33 7.32 16.66 8.64 17 10 C11.06 10 5.12 10 -1 10 C-0.67 6.7 -0.34 3.4 0 0 Z " fill="#D36666" transform="translate(62,324)"/>
<path d="M0 0 C3.75561867 0.32657554 6.73602552 1.1169378 10 3 C10 4.98 10 6.96 10 9 C7.39619004 9.19476139 4.79224467 9.38108614 2.1875 9.5625 C1.44951172 9.61857422 0.71152344 9.67464844 -0.04882812 9.73242188 C-3.36788516 9.95769724 -5.81232564 10.06255812 -9 9 C-7.66073876 4.98221628 -5.50865531 4.21976152 -2 2 C-1.34 1.34 -0.68 0.68 0 0 Z " fill="#1E1D1B" transform="translate(408,323)"/>
<path d="M0 0 C1.765625 1.359375 1.765625 1.359375 3 3 C3.1875 5.6875 3.1875 5.6875 3 8 C-0.66666667 8 -4.33333333 8 -8 8 C-8 8.99 -8 9.98 -8 11 C-9.65 10.67 -11.3 10.34 -13 10 C-13.31068741 6.58243849 -13.3625104 4.59893023 -11.5625 1.625 C-7.89506113 -0.70069294 -4.23991022 -0.86672198 0 0 Z " fill="#2D2726" transform="translate(87,187)"/>
<path d="M0 0 C1.27875 -0.061875 2.5575 -0.12375 3.875 -0.1875 C4.95394531 -0.23970703 4.95394531 -0.23970703 6.0546875 -0.29296875 C6.69664063 -0.19628906 7.33859375 -0.09960938 8 0 C8.66 0.99 9.32 1.98 10 3 C11.010625 3.309375 12.02125 3.61875 13.0625 3.9375 C14.5165625 4.4634375 14.5165625 4.4634375 16 5 C16.33 6.32 16.66 7.64 17 9 C11.06 9 5.12 9 -1 9 C-0.67 6.03 -0.34 3.06 0 0 Z " fill="#D15F5F" transform="translate(84,324)"/>
<path d="M0 0 C0.99 0 1.98 0 3 0 C3 0.99 3 1.98 3 3 C4.32 3.33 5.64 3.66 7 4 C7.66 6.31 8.32 8.62 9 11 C9.66 11 10.32 11 11 11 C11.33 9.35 11.66 7.7 12 6 C13.32 5.67 14.64 5.34 16 5 C14.68 8.63 13.36 12.26 12 16 C10.35 15.67 8.7 15.34 7 15 C5.42141387 12.45163399 4.87482053 9.90072071 4 7 C3.67 9.97 3.34 12.94 3 16 C2.01 16 1.02 16 0 16 C0 10.72 0 5.44 0 0 Z " fill="#1385FF" transform="translate(283,361)"/>
<path d="M0 0 C1.32 0 2.64 0 4 0 C4 1.65 4 3.3 4 5 C4.94875 4.95875 5.8975 4.9175 6.875 4.875 C10 5 10 5 12 7 C12.1953125 9.1640625 12.1953125 9.1640625 12.125 11.625 C12.10695313 12.44226563 12.08890625 13.25953125 12.0703125 14.1015625 C12.03550781 15.04128906 12.03550781 15.04128906 12 16 C10.68 16 9.36 16 8 16 C8 13.36 8 10.72 8 8 C6.68 8 5.36 8 4 8 C4 10.64 4 13.28 4 16 C2.68 16 1.36 16 0 16 C0 10.72 0 5.44 0 0 Z " fill="#2890FF" transform="translate(356,361)"/>
<path d="M0 0 C3.63 0 7.26 0 11 0 C11 0.99 11 1.98 11 3 C8.36 3 5.72 3 3 3 C3 3.99 3 4.98 3 6 C5.31 6 7.62 6 10 6 C10 6.99 10 7.98 10 9 C7.69 9 5.38 9 3 9 C3 9.99 3 10.98 3 12 C5.64 12 8.28 12 11 12 C11 12.99 11 13.98 11 15 C7.37 15 3.74 15 0 15 C0 10.05 0 5.1 0 0 Z " fill="#38AD53" transform="translate(92,362)"/>
<path d="M0 0 C3.5625 0.3125 3.5625 0.3125 5.5 1.5 C6.94968434 3.97299093 6.98567323 5.49134512 6.5625 8.3125 C5.4375 10.125 5.4375 10.125 3.5625 11.3125 C0.41325452 11.70615568 -1.55659116 11.84104531 -4.3125 10.1875 C-5.94281294 7.47031176 -5.76765665 5.41597254 -5.4375 2.3125 C-3.4375 0.3125 -3.4375 0.3125 0 0 Z " fill="#3DAF57" transform="translate(147.4375,365.6875)"/>
<path d="M0 0 C3.5 0.25 3.5 0.25 5.5 2.25 C5.8125 5.75 5.8125 5.75 5.5 9.25 C2.02957297 11.56361802 0.58165827 11.76020728 -3.5 11.25 C-5.4375 9.5625 -5.4375 9.5625 -6.5 7.25 C-6.14950973 2.34313629 -5.13596028 0.36685431 0 0 Z " fill="#38AD53" transform="translate(232.5,365.75)"/>
<path d="M0 0 C2.875 0.4375 2.875 0.4375 5.875 2.4375 C5.875 3.0975 5.875 3.7575 5.875 4.4375 C4.575625 4.416875 3.27625 4.39625 1.9375 4.375 C0.58334367 4.35350546 -0.77256083 4.36601801 -2.125 4.4375 C-3.42133621 5.50395115 -3.42133621 5.50395115 -3.1875 8 C-3.166875 8.804375 -3.14625 9.60875 -3.125 10.4375 C-1.145 11.0975 0.835 11.7575 2.875 12.4375 C2.875 11.1175 2.875 9.7975 2.875 8.4375 C3.865 8.4375 4.855 8.4375 5.875 8.4375 C5.875 10.4175 5.875 12.3975 5.875 14.4375 C2.66197738 16.04401131 -0.64965859 16.04877547 -4.125 15.4375 C-6.85580856 13.04804251 -7.89400145 11.46416021 -8.6875 7.9375 C-7.61387315 3.1658251 -4.78172175 0.66944104 0 0 Z " fill="#3CAF56" transform="translate(219.125,361.5625)"/>
<path d="M0 0 C3.5 0.1875 3.5 0.1875 7 1 C9 4 9 4 8.8125 6.5 C7.92812648 9.2211493 7.40982297 10.45082809 5 12 C2.19417063 11.85970853 0.49361071 11.31262012 -1.875 9.8125 C-3 8 -3 8 -2.8125 4.9375 C-2 2 -2 2 0 0 Z " fill="#ECF5FF" transform="translate(375,307)"/>
<path d="M0 0 C3.0625 0.3125 3.0625 0.3125 5 1.4375 C6.0625 3.3125 6.0625 3.3125 5.9375 6.375 C5.0625 9.3125 5.0625 9.3125 2.0625 11.3125 C-3.49305556 10.75694444 -3.49305556 10.75694444 -4.9375 9.3125 C-5.125 5.875 -5.125 5.875 -4.9375 2.3125 C-2.9375 0.3125 -2.9375 0.3125 0 0 Z " fill="#F6FBF7" transform="translate(125.9375,302.6875)"/>
<path d="M0 0 C1.60875 -0.04125 3.2175 -0.0825 4.875 -0.125 C5.77992188 -0.14820313 6.68484375 -0.17140625 7.6171875 -0.1953125 C10 0 10 0 12 2 C12.1953125 4.1640625 12.1953125 4.1640625 12.125 6.625 C12.10695312 7.44226563 12.08890625 8.25953125 12.0703125 9.1015625 C12.03550781 10.04128906 12.03550781 10.04128906 12 11 C10.68 11 9.36 11 8 11 C8 8.36 8 5.72 8 3 C6.68 3 5.36 3 4 3 C4 5.64 4 8.28 4 11 C2.68 11 1.36 11 0 11 C0 7.37 0 3.74 0 0 Z " fill="#46B35F" transform="translate(155,366)"/>
<path d="M0 0 C1.60875 -0.04125 3.2175 -0.0825 4.875 -0.125 C5.77992188 -0.14820313 6.68484375 -0.17140625 7.6171875 -0.1953125 C10 0 10 0 12 2 C12.1953125 4.1640625 12.1953125 4.1640625 12.125 6.625 C12.10695312 7.44226563 12.08890625 8.25953125 12.0703125 9.1015625 C12.03550781 10.04128906 12.03550781 10.04128906 12 11 C10.68 11 9.36 11 8 11 C8 8.36 8 5.72 8 3 C6.68 3 5.36 3 4 3 C4 5.64 4 8.28 4 11 C2.68 11 1.36 11 0 11 C0 7.37 0 3.74 0 0 Z " fill="#46B35F" transform="translate(124,366)"/>
<path d="M0 0 C-0.06006078 1.45947705 -0.1488689 2.91779272 -0.25 4.375 C-0.31960937 5.59316406 -0.31960937 5.59316406 -0.390625 6.8359375 C-1 9 -1 9 -2.85546875 10.33984375 C-6.02195673 11.31459142 -7.99550999 10.21458107 -11 9 C-11.99 8.67 -12.98 8.34 -14 8 C-13.67 6.35 -13.34 4.7 -13 3 C-11.02 3.495 -11.02 3.495 -9 4 C-9 3.01 -9 2.02 -9 1 C-5.8035914 -0.06546953 -3.34252724 -0.07427838 0 0 Z " fill="#F3826D" transform="translate(88,194)"/>
<path d="M0 0 C0.99 0 1.98 0 3 0 C3.33 0.66 3.66 1.32 4 2 C4.99 1.34 5.98 0.68 7 0 C8.32 0 9.64 0 11 0 C11 0.99 11 1.98 11 3 C10.21625 3.28875 9.4325 3.5775 8.625 3.875 C5.90328368 4.84912254 5.90328368 4.84912254 4 7 C3.6936141 9.73434962 3.4886664 12.38279821 3.375 15.125 C3.33632812 15.87910156 3.29765625 16.63320312 3.2578125 17.41015625 C3.16348969 19.27303184 3.08065338 21.13648255 3 23 C2.01 23 1.02 23 0 23 C0 15.41 0 7.82 0 0 Z " fill="#0E82FF" transform="translate(251,178)"/>
<path d="M0 0 C1.875 1.3125 1.875 1.3125 3 3 C3 3.99 3 4.98 3 6 C0.36 6 -2.28 6 -5 6 C-5 6.66 -5 7.32 -5 8 C-2.69 8 -0.38 8 2 8 C1.67 8.99 1.34 9.98 1 11 C-5.40818182 11.36272727 -5.40818182 11.36272727 -7.9375 9.8125 C-9.38718434 7.33950907 -9.42317323 5.82115488 -9 3 C-6.73529086 -0.64869805 -4.03159541 -0.50394943 0 0 Z " fill="#55B96C" transform="translate(203,366)"/>
<path d="M0 0 C2.8125 0.125 2.8125 0.125 6 1 C8.31544669 4.51309153 9.39066605 7.85652915 10 12 C2.59743291 12.48541424 2.59743291 12.48541424 0 10.375 C-1.24964598 7.4070908 -1.27756584 5.19200721 -1 2 C-0.67 1.34 -0.34 0.68 0 0 Z " fill="#1C1C1B" transform="translate(439,322)"/>
<path d="M0 0 C2.64 1.98 5.28 3.96 8 6 C7.01 6.495 7.01 6.495 6 7 C5.731875 7.639375 5.46375 8.27875 5.1875 8.9375 C4 11 4 11 1.75 12.375 C-1.75137361 13.17076673 -3.73630632 12.36619736 -7 11 C-5.7015201 6.99635363 -4.38854245 5.40477206 -1 3 C-0.67 2.01 -0.34 1.02 0 0 Z " fill="#F7B497" transform="translate(415,209)"/>
<path d="M0 0 C6.15234375 -0.09765625 6.15234375 -0.09765625 8 0 C9 1 9 1 9.09765625 3.28515625 C9.08605469 4.20167969 9.07445313 5.11820312 9.0625 6.0625 C9.05347656 6.98160156 9.04445313 7.90070313 9.03515625 8.84765625 C9.02355469 9.55792969 9.01195313 10.26820313 9 11 C6.03 11 3.06 11 0 11 C-0.625 8.625 -0.625 8.625 -1 6 C1.1385485 3.8614515 2.13275314 3.57344937 5 3 C3.35 3 1.7 3 0 3 C0 2.01 0 1.02 0 0 Z " fill="#34AC50" transform="translate(105,366)"/>
<path d="M0 0 C3.5 0.25 3.5 0.25 5.5 2.25 C5.5 3.57 5.5 4.89 5.5 6.25 C2.86 6.25 0.22 6.25 -2.5 6.25 C-2.5 6.91 -2.5 7.57 -2.5 8.25 C-0.19 8.25 2.12 8.25 4.5 8.25 C4.17 9.24 3.84 10.23 3.5 11.25 C0.125 11.375 0.125 11.375 -3.5 11.25 C-5.5 9.25 -5.5 9.25 -5.75 5.75 C-5.40898007 0.975721 -4.774279 0.34101993 0 0 Z " fill="#1485FF" transform="translate(304.5,365.75)"/>
<path d="M0 0 C1.32 0 2.64 0 4 0 C4 7.59 4 15.18 4 23 C2.68 23 1.36 23 0 23 C0 15.41 0 7.82 0 0 Z " fill="#40B15A" transform="translate(314,178)"/>
<path d="M0 0 C0.99 0 1.98 0 3 0 C3 1.32 3 2.64 3 4 C3.94875 3.95875 4.8975 3.9175 5.875 3.875 C9 4 9 4 11 6 C11.1953125 8.1640625 11.1953125 8.1640625 11.125 10.625 C11.10695312 11.44226563 11.08890625 12.25953125 11.0703125 13.1015625 C11.03550781 14.04128906 11.03550781 14.04128906 11 15 C10.01 15 9.02 15 8 15 C8 12.36 8 9.72 8 7 C6.35 7 4.7 7 3 7 C3 9.64 3 12.28 3 15 C2.01 15 1.02 15 0 15 C0 10.05 0 5.1 0 0 Z " fill="#32AB4E" transform="translate(182,362)"/>
<path d="M0 0 C0.33 0 0.66 0 1 0 C1.73258112 6.00925084 2.18387032 11.9227644 2.31640625 17.97265625 C2.33718735 18.78117538 2.35796844 19.58969452 2.37937927 20.42271423 C2.44401616 22.96923514 2.50335409 25.51584627 2.5625 28.0625 C2.6057672 29.80404525 2.64938388 31.54558186 2.69335938 33.28710938 C2.79960748 37.52465052 2.90110823 41.76228106 3 46 C1.02661133 44.90820312 1.02661133 44.90820312 -1 43 C-1.4699707 40.04492188 -1.4699707 40.04492188 -1.42578125 36.46875 C-1.41740234 35.18355469 -1.40902344 33.89835937 -1.40039062 32.57421875 C-1.371095 31.21614581 -1.34179812 29.85807289 -1.3125 28.5 C-1.30100748 27.1419406 -1.29122266 25.7838656 -1.28320312 24.42578125 C-1.16878653 14.50635958 -1.16878653 14.50635958 0 11 C0.0685495 9.10529184 0.08480372 7.2083166 0.0625 5.3125 C0.05347656 4.31863281 0.04445313 3.32476562 0.03515625 2.30078125 C0.02355469 1.54152344 0.01195313 0.78226563 0 0 Z " fill="#9CA785" transform="translate(84,245)"/>
<path d="M0 0 C2.4375 1.25 2.4375 1.25 4 3 C4 4.32 4 5.64 4 7 C-0.95 7 -5.9 7 -11 7 C-10.67 5.35 -10.34 3.7 -10 2 C-6.28986601 -0.47342266 -4.38939738 -0.38503486 0 0 Z " fill="#F8FBFF" transform="translate(239,181)"/>
<path d="M0 0 C2.4375 1.25 2.4375 1.25 4 3 C4 4.32 4 5.64 4 7 C-0.95 7 -5.9 7 -11 7 C-10.67 5.35 -10.34 3.7 -10 2 C-6.28986601 -0.47342266 -4.38939738 -0.38503486 0 0 Z " fill="#F8FBFF" transform="translate(215,181)"/>
<path d="M0 0 C4.29 0 8.58 0 13 0 C13 0.99 13 1.98 13 3 C11.35 3 9.7 3 8 3 C8 6.96 8 10.92 8 15 C7.01 15 6.02 15 5 15 C5 11.04 5 7.08 5 3 C3.35 3 1.7 3 0 3 C0 2.01 0 1.02 0 0 Z " fill="#1183FF" transform="translate(373,362)"/>
<path d="M0 0 C1.32 0 2.64 0 4 0 C4 5.28 4 10.56 4 16 C2.68 16 1.36 16 0 16 C-1.56633048 13.51229865 -2.04100928 12.34447796 -1.6875 9.375 C-1 7 -1 7 0 5 C-0.99 4.67 -1.98 4.34 -3 4 C-1.68 3.67 -0.36 3.34 1 3 C0.67 2.01 0.34 1.02 0 0 Z " fill="#92C7FF" transform="translate(342,361)"/>
<path d="M0 0 C0 1.32 0 2.64 0 4 C0.66 4 1.32 4 2 4 C2 4.99 2 5.98 2 7 C1.05125 6.979375 0.1025 6.95875 -0.875 6.9375 C-3.90666283 6.77448174 -3.90666283 6.77448174 -6 8 C-6 7.01 -6 6.02 -6 5 C-7.65 4.67 -9.3 4.34 -11 4 C-10 1 -10 1 -8.3125 -0.25 C-5.26772958 -1.23749311 -3.08088616 -0.7002014 0 0 Z " fill="#E6AC8F" transform="translate(429,223)"/>
<path d="M0 0 C2.5625 0.1875 2.5625 0.1875 4.5625 2.1875 C4.5625 3.5075 4.5625 4.8275 4.5625 6.1875 C1.9225 6.1875 -0.7175 6.1875 -3.4375 6.1875 C-3.4375 6.8475 -3.4375 7.5075 -3.4375 8.1875 C-1.1275 8.1875 1.1825 8.1875 3.5625 8.1875 C3.2325 9.1775 2.9025 10.1675 2.5625 11.1875 C-0.8125 11.3125 -0.8125 11.3125 -4.4375 11.1875 C-6.4375 9.1875 -6.4375 9.1875 -6.5625 6.5625 C-6.52125 5.77875 -6.48 4.995 -6.4375 4.1875 C-5.7775 3.8575 -5.1175 3.5275 -4.4375 3.1875 C-4.4375 3.8475 -4.4375 4.5075 -4.4375 5.1875 C-2.4575 5.1875 -0.4775 5.1875 1.5625 5.1875 C0.30708443 2.67666886 -0.93813488 2.31624554 -3.4375 1.1875 C-2.4375 0.1875 -2.4375 0.1875 0 0 Z " fill="#1184FF" transform="translate(271.4375,365.8125)"/>
<path d="M0 0 C1.32 0 2.64 0 4 0 C4 0.99 4 1.98 4 3 C4.66 3 5.32 3 6 3 C6 3.66 6 4.32 6 5 C5.34 5 4.68 5 4 5 C4 6.98 4 8.96 4 11 C4.99 11 5.98 11 7 11 C7 11.99 7 12.98 7 14 C4.625 14.125 4.625 14.125 2 14 C-0.35348271 11.64651729 -0.36468749 10.78533309 -0.6875 7.5625 C-0.77386719 6.78003906 -0.86023438 5.99757813 -0.94921875 5.19140625 C-1 3 -1 3 0 0 Z " fill="#238DFF" transform="translate(348,363)"/>
<path d="M0 0 C2 3 2 3 2 6 C3.31266518 7.35368596 4.64567325 8.68799596 6 10 C6 10.66 6 11.32 6 12 C3.375 12.8125 3.375 12.8125 0 13 C-2.3586498 11.57631048 -4.00702837 9.94551992 -6 8 C-5.195625 7.236875 -4.39125 6.47375 -3.5625 5.6875 C-0.83200976 3.20569102 -0.83200976 3.20569102 0 0 Z " fill="#F6B597" transform="translate(465,212)"/>
<path d="M0 0 C0.66 0.33 1.32 0.66 2 1 C4.65339366 8.96018097 3.04418852 17.37581615 0 25 C-1.6875 28.125 -1.6875 28.125 -3 30 C-4.56546998 26.86906003 -3.06677663 24.6904669 -2 21.4375 C-0.1481013 15.268718 0.09492397 11.2709282 -1 5 C-0.5625 1.9375 -0.5625 1.9375 0 0 Z " fill="#81906C" transform="translate(69,218)"/>
<path d="M0 0 C1.32 0 2.64 0 4 0 C4 5.28 4 10.56 4 16 C2.68 16 1.36 16 0 16 C0 10.72 0 5.44 0 0 Z " fill="#3295FF" transform="translate(277,361)"/>
<path d="M0 0 C0.99 0 1.98 0 3 0 C3 0.99 3 1.98 3 3 C3.99 3 4.98 3 6 3 C6 3.66 6 4.32 6 5 C5.01 5 4.02 5 3 5 C3 6.98 3 8.96 3 11 C3.99 11 4.98 11 6 11 C6 11.99 6 12.98 6 14 C4.33388095 14.042721 2.66617115 14.04063832 1 14 C0 13 0 13 -0.09765625 11.15234375 C-0.06510417 9.1015625 -0.03255208 7.05078125 0 5 C-0.66 5 -1.32 5 -2 5 C-2 4.34 -2 3.68 -2 3 C-1.34 3 -0.68 3 0 3 C0 2.01 0 1.02 0 0 Z " fill="#33AB4F" transform="translate(174,363)"/>
<path d="M0 0 C0.33 0.66 0.66 1.32 1 2 C2.11375 1.95875 3.2275 1.9175 4.375 1.875 C8 2 8 2 10 4 C6.7 4 3.4 4 0 4 C0 5.65 0 7.3 0 9 C-0.66 8.67 -1.32 8.34 -2 8 C-4.3329866 7.95977609 -6.66706666 7.95679753 -9 8 C-8.67 6.35 -8.34 4.7 -8 3 C-6.865625 2.690625 -5.73125 2.38125 -4.5625 2.0625 C-1.21224901 1.37075469 -1.21224901 1.37075469 0 0 Z " fill="#9E9074" transform="translate(86,221)"/>
<path d="M0 0 C2.375 -0.125 2.375 -0.125 5 0 C7 2 7 2 7.125 5.125 C7.08375 6.07375 7.0425 7.0225 7 8 C4.69 8.33 2.38 8.66 0 9 C0 6.03 0 3.06 0 0 Z " fill="#F7FBFF" transform="translate(253,365)"/>
<path d="M0 0 C0.66 0.99 1.32 1.98 2 3 C5.05429073 4.21284876 5.05429073 4.21284876 8 5 C8 5.66 8 6.32 8 7 C3.71 7 -0.58 7 -5 7 C-5 5.02 -5 3.04 -5 1 C-2 0 -2 0 0 0 Z " fill="#C22C32" transform="translate(92,324)"/>
<path d="M0 0 C2.4375 0.375 2.4375 0.375 5 1 C5.33 1.66 5.66 2.32 6 3 C8.3140622 3.73075648 10.64828869 4.40138258 13 5 C13 5.66 13 6.32 13 7 C8.71 7 4.42 7 0 7 C0 4.69 0 2.38 0 0 Z " fill="#C1292F" transform="translate(65,325)"/>
<path d="M0 0 C2.31 0 4.62 0 7 0 C7 0.99 7 1.98 7 3 C6.01 3 5.02 3 4 3 C4 5.64 4 8.28 4 11 C2.68 11 1.36 11 0 11 C0 7.37 0 3.74 0 0 Z " fill="#218CFF" transform="translate(386,366)"/>
<path d="M0 0 C2.31 0 4.62 0 7 0 C6.5359375 0.7734375 6.5359375 0.7734375 6.0625 1.5625 C4.70940713 4.66665423 4.38640576 7.65115007 4 11 C2.68 11 1.36 11 0 11 C0 7.37 0 3.74 0 0 Z " fill="#268EFF" transform="translate(311,366)"/>
<path d="M0 0 C2.31 0 4.62 0 7 0 C6.5359375 0.7734375 6.5359375 0.7734375 6.0625 1.5625 C4.70940713 4.66665423 4.38640576 7.65115007 4 11 C2.68 11 1.36 11 0 11 C0 7.37 0 3.74 0 0 Z " fill="#48B460" transform="translate(116,366)"/>
<path d="M0 0 C0.309375 0.639375 0.61875 1.27875 0.9375 1.9375 C1.8345163 3.93610821 1.8345163 3.93610821 3 5 C3.29386153 8.72224599 3.14809171 9.77786243 1 13 C1.33 13.99 1.66 14.98 2 16 C0.02 16.99 0.02 16.99 -2 18 C-1.67 13.71 -1.34 9.42 -1 5 C-1.66 5 -2.32 5 -3 5 C-2.67 4.01 -2.34 3.02 -2 2 C-2 2.66 -2 3.32 -2 4 C-1.34 4 -0.68 4 0 4 C0 2.68 0 1.36 0 0 Z " fill="#677955" transform="translate(84,206)"/>
<path d="M0 0 C0.33 0 0.66 0 1 0 C1.33 2.64 1.66 5.28 2 8 C4.97 8.495 4.97 8.495 8 9 C8 8.34 8 7.68 8 7 C7.34 6.67 6.68 6.34 6 6 C6.33 5.34 6.66 4.68 7 4 C9.475 4.99 9.475 4.99 12 6 C11.125 9.875 11.125 9.875 10 11 C6.66381769 11.14257189 3.34024394 11.04228157 0 11 C0 7.37 0 3.74 0 0 Z " fill="#3898FF" transform="translate(405,366)"/>
<path d="M0 0 C1.32 0.33 2.64 0.66 4 1 C3.01 1 2.02 1 1 1 C1 5.95 1 10.9 1 16 C0.34 16 -0.32 16 -1 16 C-1 15.01 -1 14.02 -1 13 C-1.99 13 -2.98 13 -4 13 C-4 11.02 -4 9.04 -4 7 C-3.01 6.67 -2.02 6.34 -1 6 C-0.67 4.02 -0.34 2.04 0 0 Z " fill="#C2E6CA" transform="translate(181,361)"/>
<path d="M0 0 C0.78375 0.04125 1.5675 0.0825 2.375 0.125 C2.354375 0.90875 2.33375 1.6925 2.3125 2.5 C2.18815937 5.10614961 2.18815937 5.10614961 3.375 7.125 C1.065 7.125 -1.245 7.125 -3.625 7.125 C-4.25 4.75 -4.25 4.75 -4.625 2.125 C-2.625 0.125 -2.625 0.125 0 0 Z " fill="#63BF78" transform="translate(108.625,369.875)"/>
<path d="M0 0 C4.19769372 0.24692316 6.52655584 0.6474352 9.9375 3.1875 C12.33274372 6.45374144 12.46009282 8.04320172 12 12 C11.01 11.67 10.02 11.34 9 11 C9 10.2575 9 9.515 9 8.75 C7.79334286 5.43169286 7.01007481 5.19940189 3.9375 3.6875 C2.63271056 3.10733879 1.32226452 2.53914658 0 2 C0 1.34 0 0.68 0 0 Z " fill="#0E82FF" transform="translate(234,178)"/>
<path d="M0 0 C4.19769372 0.24692316 6.52655584 0.6474352 9.9375 3.1875 C12.33274372 6.45374144 12.46009282 8.04320172 12 12 C11.01 11.67 10.02 11.34 9 11 C9 10.2575 9 9.515 9 8.75 C7.79334286 5.43169286 7.01007481 5.19940189 3.9375 3.6875 C2.63271056 3.10733879 1.32226452 2.53914658 0 2 C0 1.34 0 0.68 0 0 Z " fill="#0E82FF" transform="translate(210,178)"/>
<path d="M0 0 C0 4.95 0 9.9 0 15 C-3.46910029 10.37453295 -4.46571301 8.70498437 -4 3 C-1.7 0 -1.7 0 0 0 Z " fill="#687D54" transform="translate(72,207)"/>
<path d="M0 0 C0.99 0.33 1.98 0.66 3 1 C2.67 2.98 2.34 4.96 2 7 C2.99 7.66 3.98 8.32 5 9 C5 9.66 5 10.32 5 11 C2.0625 10.625 2.0625 10.625 -1 10 C-2.38125018 7.23749964 -2.19079306 5.05268901 -2 2 C-1.34 1.34 -0.68 0.68 0 0 Z " fill="#36AC51" transform="translate(144,366)"/>
<path d="M0 0 C0.33 0 0.66 0 1 0 C1.02505615 0.61931396 1.0501123 1.23862793 1.07592773 1.87670898 C1.19322658 4.73044888 1.31533586 7.58396441 1.4375 10.4375 C1.47681641 11.41138672 1.51613281 12.38527344 1.55664062 13.38867188 C1.81368167 19.30061599 2.27719621 25.12645997 3 31 C2.01 30.34 1.02 29.68 0 29 C-0.34057617 26.11083984 -0.34057617 26.11083984 -0.29296875 22.4609375 C-0.28330078 21.15898437 -0.27363281 19.85703125 -0.26367188 18.515625 C-0.23860388 17.13541077 -0.21320902 15.75520244 -0.1875 14.375 C-0.17245517 12.98699337 -0.15876641 11.59897133 -0.14648438 10.2109375 C-0.1110257 6.80690491 -0.06160298 3.40364378 0 0 Z " fill="#8E9C78" transform="translate(83,259)"/>
<path d="M0 0 C1.32 0 2.64 0 4 0 C4 3.3 4 6.6 4 10 C3.01 10 2.02 10 1 10 C0.67 6.7 0.34 3.4 0 0 Z " fill="#2890FF" transform="translate(425,362)"/>
<path d="M0 0 C0.99 0 1.98 0 3 0 C3 3.63 3 7.26 3 11 C1.35 10.67 -0.3 10.34 -2 10 C-1.34 6.7 -0.68 3.4 0 0 Z " fill="#0E82FF" transform="translate(402,366)"/>
<path d="M0 0 C0.99 0.33 1.98 0.66 3 1 C3 2.65 3 4.3 3 6 C1.02 6.99 1.02 6.99 -1 8 C-2.32 7.01 -3.64 6.02 -5 5 C-3.35 3.35 -1.7 1.7 0 0 Z " fill="#FCF6F4" transform="translate(421,216)"/>
<path d="M0 0 C0.99 0 1.98 0 3 0 C3 3.63 3 7.26 3 11 C2.01 11 1.02 11 0 11 C0 7.37 0 3.74 0 0 Z " fill="#007BFF" transform="translate(343,366)"/>
<path d="M0 0 C0.99 0 1.98 0 3 0 C3 3.63 3 7.26 3 11 C2.01 11 1.02 11 0 11 C0 7.37 0 3.74 0 0 Z " fill="#007BFF" transform="translate(283,366)"/>
<path d="M0 0 C0.99 0.33 1.98 0.66 3 1 C3 2.65 3 4.3 3 6 C1.125 7.0625 1.125 7.0625 -1 8 C-1.66 7.67 -2.32 7.34 -3 7 C-3.625 4.9375 -3.625 4.9375 -4 3 C-3.01 3 -2.02 3 -1 3 C-0.67 2.01 -0.34 1.02 0 0 Z " fill="#DF7462" transform="translate(84,197)"/>
<path d="M0 0 C2.26273207 3.55818936 2.07331744 6.12547951 1.625 10.25 C1.51414062 11.32765625 1.40328125 12.4053125 1.2890625 13.515625 C1.19367188 14.33546875 1.09828125 15.1553125 1 16 C0.34 15.67 -0.32 15.34 -1 15 C-1.02685412 12.68756208 -1.04632841 10.3750373 -1.0625 8.0625 C-1.07410156 6.77472656 -1.08570313 5.48695313 -1.09765625 4.16015625 C-1 1 -1 1 0 0 Z " fill="#DCECFF" transform="translate(282,361)"/>
<path d="M0 0 C0.66 0.33 1.32 0.66 2 1 C2 4.3 2 7.6 2 11 C1.67 10.01 1.34 9.02 1 8 C0.01 8 -0.98 8 -2 8 C-2 6.02 -2 4.04 -2 2 C-1.34 2 -0.68 2 0 2 C0 1.34 0 0.68 0 0 Z " fill="#EAF4FF" transform="translate(354,366)"/>
<path d="M0 0 C2.31 0 4.62 0 7 0 C7 0.66 7 1.32 7 2 C5.35 2 3.7 2 2 2 C2 2.66 2 3.32 2 4 C2.66 4 3.32 4 4 4 C4 4.66 4 5.32 4 6 C2.35 5.67 0.7 5.34 -1 5 C-0.67 3.35 -0.34 1.7 0 0 Z " fill="#077EFF" transform="translate(408,366)"/>
<path d="M0 0 C2.4375 0.8125 2.4375 0.8125 5 2 C5.33 2.99 5.66 3.98 6 5 C4.00045254 5.04254356 1.99958364 5.04080783 0 5 C-0.33 4.67 -0.66 4.34 -1 4 C-1.33 4.99 -1.66 5.98 -2 7 C-2.66 6.67 -3.32 6.34 -4 6 C-1.125 1.125 -1.125 1.125 0 0 Z " fill="#6FB4FF" transform="translate(267,366)"/>
<path d="M0 0 C0.99 0 1.98 0 3 0 C1.25 3.875 1.25 3.875 -1 5 C-3.3329866 5.04022391 -5.66706666 5.04320247 -8 5 C-8 4.34 -8 3.68 -8 3 C-6.865625 2.690625 -5.73125 2.38125 -4.5625 2.0625 C-1.21224901 1.37075469 -1.21224901 1.37075469 0 0 Z " fill="#1284FF" transform="translate(242,196)"/>
<path d="M0 0 C0.99 0 1.98 0 3 0 C1.25 3.875 1.25 3.875 -1 5 C-3.3329866 5.04022391 -5.66706666 5.04320247 -8 5 C-8 4.34 -8 3.68 -8 3 C-6.865625 2.690625 -5.73125 2.38125 -4.5625 2.0625 C-1.21224901 1.37075469 -1.21224901 1.37075469 0 0 Z " fill="#1284FF" transform="translate(218,196)"/>
<path d="M0 0 C2.0625 0.4375 2.0625 0.4375 4 1 C3.67 2.65 3.34 4.3 3 6 C1.68 6 0.36 6 -1 6 C-1.042721 4.33388095 -1.04063832 2.66617115 -1 1 C-0.67 0.67 -0.34 0.34 0 0 Z " fill="#EDF7F0" transform="translate(231,368)"/>
<path d="M0 0 C1.65 0.33 3.3 0.66 5 1 C4.67 2.32 4.34 3.64 4 5 C2.35 4.67 0.7 4.34 -1 4 C-0.67 2.68 -0.34 1.36 0 0 Z " fill="#EFF8F1" transform="translate(146,369)"/>
<path d="M0 0 C2.475 0.99 2.475 0.99 5 2 C4.6875 3.9375 4.6875 3.9375 4 6 C3.01 6.33 2.02 6.66 1 7 C1 5.68 1 4.36 1 3 C0.34 2.67 -0.32 2.34 -1 2 C-0.67 1.34 -0.34 0.68 0 0 Z " fill="#2A91FF" transform="translate(412,370)"/>
<path d="M0 0 C2 2 2 2 2.125 5.125 C2.08375 6.07375 2.0425 7.0225 2 8 C1.01 8.495 1.01 8.495 0 9 C-0.66 8.67 -1.32 8.34 -2 8 C-2 6.35 -2 4.7 -2 3 C-1.34 3 -0.68 3 0 3 C0 2.01 0 1.02 0 0 Z " fill="#F0F7FF" transform="translate(424,366)"/>
<path d="M0 0 C2.5625 0.1875 2.5625 0.1875 4.5625 2.1875 C4.5625 3.5075 4.5625 4.8275 4.5625 6.1875 C3.5725 6.1875 2.5825 6.1875 1.5625 6.1875 C1.2325 5.1975 0.9025 4.2075 0.5625 3.1875 C-1.43766466 1.97867904 -1.43766466 1.97867904 -3.4375 1.1875 C-2.4375 0.1875 -2.4375 0.1875 0 0 Z " fill="#0C81FF" transform="translate(305.4375,365.8125)"/>
<path d="M0 0 C0.66 0 1.32 0 2 0 C1.67 1.98 1.34 3.96 1 6 C1.66 6 2.32 6 3 6 C3 8.64 3 11.28 3 14 C2.67 14 2.34 14 2 14 C2 11.69 2 9.38 2 7 C0.68 6.67 -0.64 6.34 -2 6 C-1.34 4.02 -0.68 2.04 0 0 Z " fill="#393932" transform="translate(80,205)"/>
<path d="M0 0 C2.00720923 0.28674418 4.0085944 0.61866701 6 1 C6.33 2.65 6.66 4.3 7 6 C5.68 5.67 4.36 5.34 3 5 C3 4.34 3 3.68 3 3 C1.68 2.34 0.36 1.68 -1 1 C-0.67 0.67 -0.34 0.34 0 0 Z " fill="#2FAA4B" transform="translate(199,366)"/>
<path d="M0 0 C2.4375 0.8125 2.4375 0.8125 5 2 C5.33 2.99 5.66 3.98 6 5 C0.25 5.125 0.25 5.125 -2 4 C-1.34 2.68 -0.68 1.36 0 0 Z " fill="#69B1FF" transform="translate(301,366)"/>
<path d="M0 0 C1.98 0 3.96 0 6 0 C6 1.32 6 2.64 6 4 C4.02 4 2.04 4 0 4 C0 2.68 0 1.36 0 0 Z " fill="#FB826A" transform="translate(77,225)"/>
<path d="M0 0 C1.98 0.495 1.98 0.495 4 1 C3.67 2.32 3.34 3.64 3 5 C1.68 5 0.36 5 -1 5 C-0.67 3.35 -0.34 1.7 0 0 Z " fill="#43B25C" transform="translate(315,169)"/>
<path d="M0 0 C2.31 0 4.62 0 7 0 C7.33 0.99 7.66 1.98 8 3 C5.03 3 2.06 3 -1 3 C-0.67 2.01 -0.34 1.02 0 0 Z " fill="#30AA4C" transform="translate(217,363)"/>
<path d="M0 0 C1.65 0.33 3.3 0.66 5 1 C4.67 1.99 4.34 2.98 4 4 C2.35 3.67 0.7 3.34 -1 3 C-0.67 2.01 -0.34 1.02 0 0 Z " fill="#85946F" transform="translate(87,293)"/>
<path d="M0 0 C0.99 0.33 1.98 0.66 3 1 C2.67 2.98 2.34 4.96 2 7 C1.34 7 0.68 7 0 7 C-0.38133299 5.0085944 -0.71325582 3.00720923 -1 1 C-0.67 0.67 -0.34 0.34 0 0 Z " fill="#171717" transform="translate(240,373)"/>
<path d="M0 0 C2.64 0.33 5.28 0.66 8 1 C7.67 2.32 7.34 3.64 7 5 C4.69 4.01 2.38 3.02 0 2 C0 1.34 0 0.68 0 0 Z " fill="#EEF6FF" transform="translate(410,368)"/>
<path d="M0 0 C0.99 0 1.98 0 3 0 C2.25 2.4375 2.25 2.4375 1 5 C-1.125 5.8125 -1.125 5.8125 -3 6 C-2 4 -1 2 0 0 Z " fill="#D4A08D" transform="translate(67,251)"/>
<path d="M0 0 C0.99 0 1.98 0 3 0 C3 0.99 3 1.98 3 3 C4.32 3.66 5.64 4.32 7 5 C5.1875 5.625 5.1875 5.625 3 6 C2.01 5.34 1.02 4.68 0 4 C0 2.68 0 1.36 0 0 Z " fill="#63AEFF" transform="translate(283,361)"/>
<path d="M0 0 C1.65 0 3.3 0 5 0 C4.67 1.32 4.34 2.64 4 4 C2.68 3.67 1.36 3.34 0 3 C0 2.01 0 1.02 0 0 Z " fill="#778962" transform="translate(68,294)"/>
<path d="M0 0 C0.33 0.66 0.66 1.32 1 2 C1.66 2 2.32 2 3 2 C3 3.32 3 4.64 3 6 C1.35 5.67 -0.3 5.34 -2 5 C-1.34 3.35 -0.68 1.7 0 0 Z " fill="#615C56" transform="translate(76,205)"/>
</svg>
